<mxfile host="app.diagrams.net" agent="Mozilla/5.0 (Windows NT 10.0; Win64; x64) AppleWebKit/537.36 (KHTML, like Gecko) Chrome/131.0.0.0 Safari/537.36" version="25.0.1">
  <diagram name="Page-1" id="NUZaX0TjFb9taekaHMm7">
    <mxGraphModel dx="794" dy="412" grid="1" gridSize="10" guides="1" tooltips="1" connect="1" arrows="1" fold="1" page="1" pageScale="1" pageWidth="850" pageHeight="1100" math="0" shadow="0">
      <root>
        <mxCell id="0" />
        <mxCell id="1" parent="0" />
        <mxCell id="EA94TX0rXTA1E3Rd8HTH-1" value="&lt;font style=&quot;font-size: 20px;&quot;&gt;Notification Service&lt;/font&gt;" style="rounded=0;whiteSpace=wrap;html=1;" vertex="1" parent="1">
          <mxGeometry x="220" y="20" width="400" height="60" as="geometry" />
        </mxCell>
        <mxCell id="EA94TX0rXTA1E3Rd8HTH-2" value="Email Log" style="swimlane;fontStyle=0;childLayout=stackLayout;horizontal=1;startSize=30;horizontalStack=0;resizeParent=1;resizeParentMax=0;resizeLast=0;collapsible=1;marginBottom=0;whiteSpace=wrap;html=1;shadow=1;" vertex="1" parent="1">
          <mxGeometry x="20" y="130" width="370" height="320" as="geometry" />
        </mxCell>
        <mxCell id="EA94TX0rXTA1E3Rd8HTH-3" value="&lt;div style=&quot;line-height: 210%;&quot;&gt;&lt;div&gt;ID : String&lt;/div&gt;&lt;div&gt;Email : String&lt;/div&gt;&lt;div&gt;Email Type : Enum (EmailTypeEnum)&lt;/div&gt;&lt;div&gt;Customer ID : String&lt;/div&gt;&lt;div&gt;Customer Name : String&lt;/div&gt;&lt;div&gt;Consignment Number : String&lt;/div&gt;&lt;div&gt;Order Number : String&lt;/div&gt;&lt;div&gt;Transaction ID : String&lt;/div&gt;&lt;div&gt;Subject : String&lt;/div&gt;&lt;div&gt;Body : String&lt;/div&gt;&lt;div&gt;Email Recipient Date Time : ZonedDateTime&lt;/div&gt;&lt;/div&gt;" style="text;strokeColor=none;fillColor=none;align=left;verticalAlign=middle;spacingLeft=4;spacingRight=4;overflow=hidden;points=[[0,0.5],[1,0.5]];portConstraint=eastwest;rotatable=0;whiteSpace=wrap;html=1;" vertex="1" parent="EA94TX0rXTA1E3Rd8HTH-2">
          <mxGeometry y="30" width="370" height="290" as="geometry" />
        </mxCell>
        <mxCell id="EA94TX0rXTA1E3Rd8HTH-4" value="OTP" style="swimlane;fontStyle=0;childLayout=stackLayout;horizontal=1;startSize=30;horizontalStack=0;resizeParent=1;resizeParentMax=0;resizeLast=0;collapsible=1;marginBottom=0;whiteSpace=wrap;html=1;shadow=1;" vertex="1" parent="1">
          <mxGeometry x="420" y="130" width="370" height="230" as="geometry" />
        </mxCell>
        <mxCell id="EA94TX0rXTA1E3Rd8HTH-5" value="&lt;div style=&quot;line-height: 210%;&quot;&gt;&lt;div&gt;ID : String&lt;/div&gt;&lt;div&gt;OTP : String&lt;/div&gt;&lt;div&gt;Email : String&lt;/div&gt;&lt;div&gt;Is Used : Boolean&lt;/div&gt;&lt;div&gt;Creation Date : ZonedDateTime&lt;/div&gt;&lt;div&gt;Last Modified Date : ZonedDateTime&lt;/div&gt;&lt;div&gt;Expiry Date : ZonedDateTime&lt;/div&gt;&lt;/div&gt;" style="text;strokeColor=none;fillColor=none;align=left;verticalAlign=middle;spacingLeft=4;spacingRight=4;overflow=hidden;points=[[0,0.5],[1,0.5]];portConstraint=eastwest;rotatable=0;whiteSpace=wrap;html=1;" vertex="1" parent="EA94TX0rXTA1E3Rd8HTH-4">
          <mxGeometry y="30" width="370" height="200" as="geometry" />
        </mxCell>
        <mxCell id="EA94TX0rXTA1E3Rd8HTH-6" value="Email Type Enum" style="swimlane;fontStyle=0;childLayout=stackLayout;horizontal=1;startSize=30;horizontalStack=0;resizeParent=1;resizeParentMax=0;resizeLast=0;collapsible=1;marginBottom=0;whiteSpace=wrap;html=1;" vertex="1" parent="1">
          <mxGeometry x="490" y="380" width="230" height="320" as="geometry" />
        </mxCell>
        <mxCell id="EA94TX0rXTA1E3Rd8HTH-7" value="&lt;div style=&quot;line-height: 200%;&quot;&gt;&lt;div style=&quot;line-height: 200%;&quot;&gt;&lt;div style=&quot;line-height: 200%;&quot;&gt;&lt;div style=&quot;line-height: 200%;&quot;&gt;VERIFY_OTP&lt;/div&gt;&lt;div style=&quot;line-height: 200%;&quot;&gt;SHIPPED&lt;/div&gt;&lt;div style=&quot;line-height: 200%;&quot;&gt;OUT_FOR_DELIVERY&lt;/div&gt;&lt;div style=&quot;line-height: 200%;&quot;&gt;DELIVERED&lt;/div&gt;&lt;div style=&quot;line-height: 200%;&quot;&gt;OUT_FOR_PICKUP&lt;/div&gt;&lt;div style=&quot;line-height: 200%;&quot;&gt;PICKED_UP&lt;/div&gt;&lt;div style=&quot;line-height: 200%;&quot;&gt;ORDER_CONFIRMATION&lt;/div&gt;&lt;div style=&quot;line-height: 200%;&quot;&gt;ORDER_CANCELLATION&lt;/div&gt;&lt;div style=&quot;line-height: 200%;&quot;&gt;RETURN_REQUEST_RAISED&lt;/div&gt;&lt;div style=&quot;line-height: 200%;&quot;&gt;REPLACEMENT_REQUEST_RAISED&lt;/div&gt;&lt;div style=&quot;line-height: 200%;&quot;&gt;PICKUP_REQUEST_CANCELLED&lt;/div&gt;&lt;/div&gt;&lt;/div&gt;&lt;/div&gt;" style="text;strokeColor=none;fillColor=none;align=left;verticalAlign=middle;spacingLeft=4;spacingRight=4;overflow=hidden;points=[[0,0.5],[1,0.5]];portConstraint=eastwest;rotatable=0;whiteSpace=wrap;html=1;" vertex="1" parent="EA94TX0rXTA1E3Rd8HTH-6">
          <mxGeometry y="30" width="230" height="290" as="geometry" />
        </mxCell>
      </root>
    </mxGraphModel>
  </diagram>
</mxfile>
